# xmcd CD database file
#
# Track frame offsets:
#	150
#	22039
#	47456
#	69722
#	86157
#	119529
#	141398
#	172570
#	194251
#	221907
#	248080
#
# Disc length: 3380 seconds
#
# Revision: 0
# Processed by: cddbd v1.5.1PL2 Copyright (c) Steve Scherf et al.
# Submitted via: CDex 1.51
#
DISCID=9f0d320b
DTITLE=KAI, EMIKO and her friends - Lullaby of Muses (MUSES-C ISAS)
DYEAR=2002
DGENRE=Jazz
TTITLE0=Prologue - Let's fly
TTITLE1=Lift off
TTITLE2=Spica
TTITLE3=A little bit< little bit dancing
TTITLE4=Space passion
TTITLE5=Lullaby of Muses
TTITLE6=My rose
TTITLE7=Minerva
TTITLE8=Chance!
TTITLE9=Back to my arms
TTITLE10=Epilogue
EXTD=YEAR: 2002
EXTT0=
EXTT1=
EXTT2=
EXTT3=
EXTT4=
EXTT5=
EXTT6=
EXTT7=
EXTT8=
EXTT9=
EXTT10=
PLAYORDER=
